<svg xmlns="http://www.w3.org/2000/svg" width="980" height="560" viewBox="0 0 980 560" role="img" aria-labelledby="title desc">
  <title id="title">AVA v2 headline benchmark results</title>
  <desc id="desc">Bar chart showing AVA v2 scores: ARC-Easy 92.0, ARC-Challenge 82.0, PIQA 75.9, BoolQ 75.0, MMLU 59.2, GSM8K self-consistency 44.0, GSM8K greedy 35.3.</desc>
  <rect width="980" height="560" rx="18" fill="#0f1115"/>
  <text x="48" y="58" fill="#ffffff" font-family="Inter, Segoe UI, Arial, sans-serif" font-size="30" font-weight="700">AVA v2 headline results</text>
  <text x="48" y="88" fill="#aeb6c2" font-family="Inter, Segoe UI, Arial, sans-serif" font-size="15">Full evaluation, Q8_0 GGUF, 95% Wilson CI where applicable</text>
  <line x1="260" y1="126" x2="260" y2="488" stroke="#2a2f3a"/>
  <line x1="260" y1="488" x2="900" y2="488" stroke="#2a2f3a"/>
  <g font-family="Inter, Segoe UI, Arial, sans-serif" font-size="15" fill="#8993a3">
    <text x="252" y="512" text-anchor="end">0</text>
    <text x="388" y="512" text-anchor="middle">20</text>
    <text x="516" y="512" text-anchor="middle">40</text>
    <text x="644" y="512" text-anchor="middle">60</text>
    <text x="772" y="512" text-anchor="middle">80</text>
    <text x="900" y="512" text-anchor="middle">100</text>
  </g>
  <g stroke="#242936">
    <line x1="388" y1="126" x2="388" y2="488"/>
    <line x1="516" y1="126" x2="516" y2="488"/>
    <line x1="644" y1="126" x2="644" y2="488"/>
    <line x1="772" y1="126" x2="772" y2="488"/>
    <line x1="900" y1="126" x2="900" y2="488"/>
  </g>
  <g font-family="Inter, Segoe UI, Arial, sans-serif" font-size="19" fill="#e9edf5">
    <text x="48" y="155">ARC-Easy</text>
    <rect x="260" y="134" width="589" height="28" rx="6" fill="#f5c542"/>
    <text x="865" y="155" fill="#ffffff" font-weight="700">92.0%</text>
    <text x="48" y="205">ARC-Challenge</text>
    <rect x="260" y="184" width="525" height="28" rx="6" fill="#f5c542"/>
    <text x="801" y="205" fill="#ffffff" font-weight="700">82.0%</text>
    <text x="48" y="255">PIQA</text>
    <rect x="260" y="234" width="486" height="28" rx="6" fill="#66d9e8"/>
    <text x="762" y="255" fill="#ffffff" font-weight="700">75.9%</text>
    <text x="48" y="305">BoolQ</text>
    <rect x="260" y="284" width="480" height="28" rx="6" fill="#66d9e8"/>
    <text x="756" y="305" fill="#ffffff" font-weight="700">75.0%</text>
    <text x="48" y="355">MMLU 5-shot</text>
    <rect x="260" y="334" width="379" height="28" rx="6" fill="#8ce99a"/>
    <text x="655" y="355" fill="#ffffff" font-weight="700">59.2%</text>
    <text x="48" y="405">GSM8K k=5</text>
    <rect x="260" y="384" width="282" height="28" rx="6" fill="#c5a3ff"/>
    <text x="558" y="405" fill="#ffffff" font-weight="700">44.0%</text>
    <text x="48" y="455">GSM8K greedy</text>
    <rect x="260" y="434" width="226" height="28" rx="6" fill="#c5a3ff"/>
    <text x="502" y="455" fill="#ffffff" font-weight="700">35.3%</text>
  </g>
  <text x="48" y="526" fill="#8993a3" font-family="Inter, Segoe UI, Arial, sans-serif" font-size="14">Source: AVA v2 full eval report, 17 benchmarks / 16,872 tasks.</text>
</svg>
